<?xml version="1.0" encoding="UTF-8"?>
<svg id="Layer_2" data-name="Layer 2" xmlns="http://www.w3.org/2000/svg" viewBox="0 0 931.2 108.94">
  <defs>
    <style>
      .cls-1 {
        fill: #5333ec;
        stroke-width: 0px;
      }
    </style>
  </defs>
  <g id="Layer_1-2" data-name="Layer 1">
    <g>
      <g>
        <path class="cls-1" d="m41.64,47.86c-.8-1.99-2.01-3.84-3.61-5.45L13.83,18.21c-2.77,3.09-5.12,6.43-7.05,9.93l19.9,19.91H.38c-.48,3.98-.51,8.01-.09,12.01h26.4l-20.21,20.21c1.89,3.53,4.21,6.9,6.95,10.03l24.6-24.59c4.82-4.82,6.02-11.91,3.61-17.85Z"/>
        <path class="cls-1" d="m60.66,66.89h-.01c-5.94-2.41-13.01-1.2-17.83,3.61l-24.61,24.62c3.09,2.77,6.43,5.11,9.93,7.05l20.33-20.33v26.77c3.99.44,8.02.44,12.01-.01v-26.75l20.32,20.32h0c3.51-1.94,6.83-4.29,9.93-7.05l-24.62-24.62c-1.61-1.61-3.47-2.81-5.46-3.61Z"/>
        <path class="cls-1" d="m108.62,48.59h-26.9l20.44-20.44c-1.74-3.17-3.83-6.21-6.27-9.05l-.83-.83-24.68,24.68c-1.61,1.61-2.81,3.46-3.61,5.45-2.41,5.94-1.2,13.03,3.61,17.85l24.62,24.61c2.79-3.08,5.15-6.41,7.08-9.9l-20.37-20.36h26.88c.46-3.99.47-8.02.03-12.01Z"/>
        <path class="cls-1" d="m60.13,41.76c1.99-.8,3.84-2,5.45-3.61l24.68-24.68-.41-.41c-3-2.57-6.21-4.76-9.58-6.58l-20.33,20.33V.28c-4-.41-8.03-.37-12.01.11v26.43L27.98,6.86c-3.49,1.95-6.82,4.31-9.9,7.08l24.2,24.21c4.82,4.81,11.91,6.02,17.85,3.61Z"/>
      </g>
      <g>
        <path class="cls-1" d="m186.17,15.21h-25.45l-29.51,78.55h21.85l4.66-13.62h31.44l4.66,13.62h21.85l-29.51-78.55Zm-23.41,49.61l5.61-16.56c.29-.84.66-1.9,1.07-3.17.43-1.24.83-2.59,1.27-4s.81-2.82,1.21-4.26c.37-1.47.75-2.71,1.12-3.77h.81c.37,1.07.75,2.3,1.12,3.77.4,1.44.78,2.85,1.21,4.26.43,1.41.83,2.76,1.27,4,.4,1.27.78,2.33,1.07,3.17l5.61,16.56h-21.36Z"/>
        <path class="cls-1" d="m388.74,15.21h-25.45l-29.51,78.55h21.85l4.66-13.62h31.44l4.66,13.62h21.85l-29.51-78.55Zm-23.41,49.61l5.61-16.56c.29-.84.66-1.9,1.07-3.17.43-1.24.83-2.59,1.27-4,.43-1.41.81-2.82,1.21-4.26.37-1.47.75-2.71,1.12-3.77h.81c.37,1.07.75,2.3,1.12,3.77.4,1.44.78,2.85,1.21,4.26.43,1.41.83,2.76,1.27,4,.4,1.27.78,2.33,1.07,3.17l5.61,16.56h-21.36Z"/>
        <path class="cls-1" d="m304.73,93.74V15.2h20.46v78.54h-20.46Z"/>
        <path class="cls-1" d="m427.62,93.74V15.2h29.84l9.49,34.98c.38,1.22.84,2.88,1.37,4.97.53,2.09,1.07,4.29,1.6,6.57.53,2.29.99,4.34,1.37,6.17h.91c.3-1.45.69-3.18,1.14-5.2.46-2.02.95-4.15,1.49-6.4.53-2.25,1.03-4.32,1.49-6.23l9.6-34.87h29.04v78.54h-19.89v-33.5c0-3.28.02-6.59.06-9.95.04-3.35.09-6.4.17-9.15.07-2.74.11-4.72.11-5.94h-.91c-.23,1.14-.59,2.8-1.09,4.97-.5,2.17-1.03,4.42-1.6,6.75-.57,2.33-1.09,4.33-1.54,6l-11.43,40.81h-16.46l-11.55-40.81c-.38-1.52-.84-3.35-1.37-5.49-.53-2.13-1.05-4.3-1.54-6.51-.5-2.21-.93-4.08-1.32-5.6h-.91c.08,1.99.15,4.4.23,7.26.08,2.86.15,5.83.23,8.92.07,3.08.11,6,.11,8.74v33.5h-18.63Z"/>
        <path class="cls-1" d="m532.34,93.74V15.2h64.82v16h-44.36v14.75h38.75v15.66h-38.75v16.12h45.16v16h-65.62Z"/>
        <path class="cls-1" d="m612.02,93.74V15.2h45.61c5.79,0,10.63,1.09,14.52,3.26,3.89,2.17,6.8,5.15,8.74,8.92,1.95,3.77,2.92,7.98,2.92,12.63,0,5.03-1.16,9.51-3.49,13.43-2.33,3.93-5.58,6.99-9.78,9.2l15.78,31.1h-22.87l-13.03-27.67h-17.95v27.67h-20.46Zm20.46-42.87h21.15c2.82,0,5.08-.93,6.8-2.8,1.72-1.87,2.58-4.36,2.58-7.49,0-2.06-.38-3.81-1.15-5.26-.76-1.45-1.83-2.57-3.2-3.37-1.37-.8-3.05-1.2-5.03-1.2h-21.15v20.12Z"/>
        <path class="cls-1" d="m697.76,93.74V15.2h20.46v34.87l31.1-34.87h25.38l-29.26,32.12,29.84,46.41h-24.24l-19.78-32.47-13.03,12v20.46h-20.46Z"/>
        <path class="cls-1" d="m786.01,93.74V15.2h64.82v16h-44.36v14.75h38.75v15.66h-38.75v16.12h45.16v16h-65.62Z"/>
        <path class="cls-1" d="m860.09,93.74v-7.66l38.99-54.87h-36.13V15.2h67.33v7.66l-38.98,54.87h39.9v16h-71.11Z"/>
        <path class="cls-1" d="m291.76,69.24c0,1.48-.12,2.95-.36,4.26-2.1,11.73-12.24,20.23-24.14,20.23h-42.1v-19.2h42.1c2.97,0,5.3-2.33,5.3-5.3s-2.37-5.17-5.3-5.17h-21.71c-.95,0-2.02-.12-3.05-.25-10.5-1.2-19.12-9.42-20.96-19.99-.25-1.32-.37-2.79-.37-4.26s.11-2.79.36-4.14c2-11.73,12.09-20.23,24.01-20.23h40.79v19.2h-40.79c-2.9,0-5.18,2.28-5.18,5.18s2.28,5.29,5.18,5.29h21.71c.98,0,1.85.1,2.87.21l.33.04c10.5,1.33,19.13,9.55,20.95,19.98.25,1.35.36,2.71.36,4.14Z"/>
      </g>
    </g>
  </g>
</svg>