<svg width="18" height="18" viewBox="0 0 18 18" fill="none" xmlns="http://www.w3.org/2000/svg">
<path fill-rule="evenodd" clip-rule="evenodd" d="M3.52942 3.96975L7.30417 8.12025C8.48392 9.3 9.51367 9.29925 10.7189 8.09475L14.4442 3.99525L15.1409 3.2985C14.1614 2.424 12.7964 2.25 11.5304 2.25H6.46792C5.20192 2.25 3.83692 2.424 2.85742 3.29775L3.52942 3.96975Z" fill="white"/>
<path fill-rule="evenodd" clip-rule="evenodd" d="M15.5303 5.03025L11.805 9.12975C10.893 10.0425 9.94125 10.497 8.9925 10.497C8.05125 10.497 7.113 10.0485 6.21975 9.15525L2.445 5.00475L1.9755 4.53525C1.677 5.2155 1.5 6.08925 1.5 7.21875V10.7812C1.5 15.1852 4.155 15.75 6.46875 15.75H11.5312C13.845 15.75 16.5 15.1852 16.5 10.7812V7.21875C16.5 6.08925 16.323 5.2155 16.0245 4.536L15.5303 5.03025Z" fill="white"/>
</svg>
