<svg width="70" height="70" viewBox="0 0 70 70" fill="none" xmlns="http://www.w3.org/2000/svg">
<path fill-rule="evenodd" clip-rule="evenodd" d="M52.8242 32.4074C44.9901 32.4074 34.6767 19.3611 34.6767 11.667C34.6767 10.2349 33.5159 9.07404 32.0838 9.07404C30.6517 9.07404 29.4909 10.2349 29.4909 11.667C29.4909 19.3611 19.1776 32.4074 11.3434 32.4074C9.9084 32.4074 8.75049 33.5682 8.75049 35.0003C8.75049 36.4324 9.9084 37.5932 11.3434 37.5932C19.1776 37.5932 29.4909 50.6395 29.4909 58.3336C29.4909 59.7657 30.6517 60.9265 32.0838 60.9265C33.5159 60.9265 34.6767 59.7657 34.6767 58.3336C34.6767 50.6395 44.9901 37.5932 52.8242 37.5932C54.2563 37.5932 55.4172 36.4324 55.4172 35.0003C55.4172 33.5682 54.2563 32.4074 52.8242 32.4074Z" fill="black"/>
<path fill-rule="evenodd" clip-rule="evenodd" d="M59.3052 12.6388C58.3777 12.6388 57.3598 11.6209 57.3598 10.6934C57.3598 9.62005 56.4907 8.75089 55.4173 8.75089C54.3411 8.75089 53.4719 9.62005 53.4719 10.6934C53.4719 11.6209 52.454 12.6388 51.5265 12.6388C50.4532 12.6388 49.584 13.508 49.584 14.5842C49.584 15.6576 50.4532 16.5267 51.5265 16.5267C52.454 16.5267 53.4719 17.5446 53.4719 18.4721C53.4719 19.5455 54.3411 20.4176 55.4173 20.4176C56.4907 20.4176 57.3598 19.5455 57.3598 18.4721C57.3598 17.5446 58.3777 16.5267 59.3052 16.5267C60.3786 16.5267 61.2507 15.6576 61.2507 14.5842C61.2507 13.508 60.3786 12.6388 59.3052 12.6388Z" fill="black"/>
</svg>
