<svg width="18" height="18" viewBox="0 0 18 18" fill="none" xmlns="http://www.w3.org/2000/svg">
<path fill-rule="evenodd" clip-rule="evenodd" d="M11.888 15.75C10.712 15.75 9.59895 15.2895 8.75595 14.4533L3.5457 9.24225C1.8207 7.5165 1.8207 4.70775 3.5457 2.98275L4.05645 2.4735C4.19745 2.331 4.38645 2.25375 4.58745 2.25375C4.7877 2.25375 4.9767 2.331 5.11845 2.47275L7.9677 5.32275C8.10945 5.46375 8.1867 5.65125 8.1867 5.85C8.1867 6.048 8.10945 6.2355 7.9677 6.37725L6.41895 7.93725L10.0632 11.5815L11.6217 10.035C11.7642 9.89025 11.9495 9.81375 12.1482 9.81375C12.3485 9.81375 12.5367 9.891 12.6785 10.0328L15.5285 12.8828C15.821 13.1753 15.821 13.6515 15.5285 13.9448L15.0177 14.4548C14.183 15.2903 13.0707 15.75 11.888 15.75Z" fill="white"/>
</svg>
