<svg width="22" height="22" viewBox="0 0 22 22" fill="none" xmlns="http://www.w3.org/2000/svg">
<path fill-rule="evenodd" clip-rule="evenodd" d="M15.2808 9.45093L10.1383 14.1626C10.1291 14.1626 10.1199 14.1809 10.1016 14.1901C10.0558 14.2268 10.0099 14.2543 9.96408 14.2818C9.91825 14.3093 9.87242 14.3368 9.82658 14.3551C9.72575 14.3826 9.61575 14.4009 9.51492 14.4009C9.24908 14.4009 8.99242 14.2909 8.80908 14.0709L6.62742 11.4584C6.30658 11.0643 6.36159 10.4868 6.74658 10.1659C7.14075 9.8451 7.71825 9.89093 8.03908 10.2851L9.60659 12.1643L14.0524 8.09427C14.4191 7.7551 14.9966 7.7826 15.3449 8.15843C15.6841 8.5251 15.6566 9.11177 15.2808 9.45093ZM14.0983 1.83344H7.90159C4.32659 1.83344 1.83325 4.32677 1.83325 7.90177V14.0984C1.83325 17.6734 4.32659 20.1668 7.90159 20.1668H14.0983C17.6733 20.1668 20.1666 17.6734 20.1666 14.0984V7.90177C20.1666 4.32677 17.6733 1.83344 14.0983 1.83344Z" fill="black"/>
</svg>
