<svg width="24" height="24" viewBox="0 0 24 24" fill="none" xmlns="http://www.w3.org/2000/svg">
<path fill-rule="evenodd" clip-rule="evenodd" d="M21.043 15.9931C21.043 15.9671 21.03 15.9451 21.028 15.9191C21.004 15.4261 20.803 14.9331 20.409 14.5411L16.659 11.2551C16.245 10.8921 15.612 10.9311 15.248 11.3471C14.884 11.7631 14.926 12.3941 15.341 12.7591L17.961 14.9931H12C11.447 14.9931 11 15.4401 11 15.9931C11 16.5461 11.447 16.9931 12 16.9931H17.911L15.34 19.2561C14.925 19.6211 14.885 20.2531 15.249 20.6671C15.447 20.8911 15.723 21.0071 16 21.0071C16.235 21.0071 16.471 20.9251 16.66 20.7581L20.457 17.4141C20.833 17.0381 21.023 16.5491 21.031 16.0501C21.033 16.0301 21.043 16.0131 21.043 15.9931Z" fill="black"/>
<path fill-rule="evenodd" clip-rule="evenodd" d="M6.05 8.99321H12C12.553 8.99321 13 8.54621 13 7.99321C13 7.44021 12.553 6.99321 12 6.99321H6.165L8.704 4.75821C9.118 4.39221 9.158 3.76121 8.794 3.34621C8.428 2.93121 7.797 2.89221 7.382 3.25621L3.586 6.60021C3.222 6.96321 3.036 7.43421 3.016 7.91521C3.014 7.94221 3 7.96521 3 7.99321C3 8.00721 3.008 8.01921 3.008 8.03421C3.018 8.54721 3.223 9.06521 3.634 9.47321L7.384 12.7592C7.574 12.9252 7.809 13.0072 8.043 13.0072C8.32 13.0072 8.598 12.8912 8.795 12.6662C9.159 12.2502 9.117 11.6182 8.702 11.2552L6.05 8.99321Z" fill="black"/>
</svg>
