<svg width="18" height="18" viewBox="0 0 18 18" fill="none" xmlns="http://www.w3.org/2000/svg">
<path fill-rule="evenodd" clip-rule="evenodd" d="M11.25 12C11.25 12.4125 10.9125 12.75 10.5 12.75C10.0875 12.75 9.75 12.4125 9.75 12V8.25001C9.75 7.83751 10.0875 7.50001 10.5 7.50001C10.9125 7.50001 11.25 7.83751 11.25 8.25001V12ZM7.245 3.75001C7.74 3.21751 8.415 3.00751 9 3.00751C9.585 3.00751 10.26 3.21751 10.755 3.75001H7.245ZM8.25 12C8.25 12.4125 7.9125 12.75 7.5 12.75C7.0875 12.75 6.75 12.4125 6.75 12V8.25001C6.75 7.83751 7.0875 7.50001 7.5 7.50001C7.9125 7.50001 8.25 7.83751 8.25 8.25001V12ZM15.75 3.75001H12.51C11.8875 2.37001 10.5675 1.50751 9 1.50751C7.4325 1.50751 6.1125 2.37001 5.49 3.75001H2.25C1.8375 3.75001 1.5 4.08751 1.5 4.50001C1.5 4.91251 1.8375 5.25001 2.25 5.25001H3V11.535C3 15.6525 5.1 16.5 8.25 16.5H9.75C12.9 16.5 15 15.6525 15 11.535V5.25001H15.75C16.1625 5.25001 16.5 4.91251 16.5 4.50001C16.5 4.08751 16.1625 3.75001 15.75 3.75001Z" fill="#868686"/>
</svg>
