<svg width="18" height="18" viewBox="0 0 18 18" fill="none" xmlns="http://www.w3.org/2000/svg">
<path fill-rule="evenodd" clip-rule="evenodd" d="M9 9.7425C7.7625 9.7425 6.75 8.7375 6.75 7.4925C6.75 6.255 7.7625 5.2425 9 5.2425C10.2375 5.2425 11.25 6.255 11.25 7.4925C11.25 8.7375 10.2375 9.7425 9 9.7425ZM9 1.4925C5.6925 1.4925 3 4.185 3 7.4925C3 12.3225 8.34 16.1925 8.565 16.3575C8.6925 16.4475 8.85 16.4925 9 16.4925C9.15 16.4925 9.3075 16.4475 9.435 16.3575C9.66 16.1925 15 12.3225 15 7.4925C15 4.185 12.3075 1.4925 9 1.4925Z" fill="white"/>
</svg>
