<svg width="70" height="70" viewBox="0 0 70 70" fill="none" xmlns="http://www.w3.org/2000/svg">
<path fill-rule="evenodd" clip-rule="evenodd" d="M13.7286 15.4379L28.4081 31.5787C32.9961 36.1667 37.0007 36.1637 41.6877 31.4796L56.1748 15.5371L58.8844 12.8275C55.0752 9.42667 49.7669 8.75 44.8436 8.75H25.1561C20.2327 8.75 14.9244 9.42667 11.1152 12.8246L13.7286 15.4379Z" fill="black"/>
<path fill-rule="evenodd" clip-rule="evenodd" d="M60.3961 19.5621L45.909 35.5046C42.3623 39.0542 38.6611 40.8217 34.9715 40.8217C31.3111 40.8217 27.6623 39.0775 24.1886 35.6038L9.50898 19.4629L7.68315 17.6371C6.52232 20.2825 5.83398 23.6804 5.83398 28.0729V41.9271C5.83398 59.0537 16.159 61.25 25.1569 61.25H44.8444C53.8423 61.25 64.1673 59.0537 64.1673 41.9271V28.0729C64.1673 23.6804 63.479 20.2825 62.3181 17.64L60.3961 19.5621Z" fill="black"/>
</svg>
