<svg width="16" height="16" viewBox="0 0 16 16" fill="none" xmlns="http://www.w3.org/2000/svg">
<path fill-rule="evenodd" clip-rule="evenodd" d="M3.15194 2.65083L3.60727 2.1955C3.86794 1.93483 4.28994 1.93483 4.55061 2.1955L7.08394 4.72883C7.34394 4.98883 7.34394 5.4115 7.08394 5.6715L6.17261 6.58283C5.91261 6.84283 5.91261 7.2655 6.17261 7.5255L8.47394 9.8275C8.73461 10.0875 9.15727 10.0875 9.41727 9.8275L10.3286 8.91617C10.5886 8.65617 11.0113 8.65617 11.2713 8.91617L13.8046 11.4495C14.0653 11.7102 14.0653 12.1322 13.8046 12.3928L13.3493 12.8482C11.8133 14.3842 9.32327 14.3842 7.78727 12.8482L3.15194 8.21283C1.61594 6.67683 1.61594 4.18683 3.15194 2.65083Z" stroke="#E4E4E4" stroke-linecap="round" stroke-linejoin="round"/>
</svg>
