<?xml version="1.0" encoding="UTF-8"?>
<svg id="Layer_2" data-name="Layer 2" xmlns="http://www.w3.org/2000/svg" viewBox="0 0 108.95 108.94">
  <defs>
    <style>
      .cls-1 {
        stroke-width: 0px;
      }
    </style>
  </defs>
  <g id="Layer_1-2" data-name="Layer 1">
    <g>
      <path class="cls-1" d="m41.64,47.86c-.8-1.99-2.01-3.84-3.61-5.45L13.83,18.21c-2.77,3.09-5.12,6.43-7.05,9.93l19.9,19.91H.38c-.48,3.98-.51,8.01-.09,12.01h26.4l-20.21,20.21c1.89,3.53,4.21,6.9,6.95,10.03l24.6-24.59c4.82-4.82,6.02-11.91,3.61-17.85Z"/>
      <path class="cls-1" d="m60.66,66.89h-.01c-5.94-2.41-13.01-1.2-17.83,3.61l-24.61,24.62c3.09,2.77,6.43,5.11,9.93,7.05l20.33-20.33v26.77c3.99.44,8.02.44,12.01-.01v-26.75l20.32,20.32h0c3.51-1.94,6.83-4.29,9.93-7.05l-24.62-24.62c-1.61-1.61-3.47-2.81-5.46-3.61Z"/>
      <path class="cls-1" d="m108.62,48.59h-26.9l20.44-20.44c-1.74-3.17-3.83-6.21-6.27-9.05l-.83-.83-24.68,24.68c-1.61,1.61-2.81,3.46-3.61,5.45-2.41,5.94-1.2,13.03,3.61,17.85l24.62,24.61c2.79-3.08,5.15-6.41,7.08-9.9l-20.37-20.36h26.88c.46-3.99.47-8.02.03-12.01Z"/>
      <path class="cls-1" d="m60.13,41.76c1.99-.8,3.84-2,5.45-3.61l24.68-24.68-.41-.41c-3-2.57-6.21-4.76-9.58-6.58l-20.33,20.33V.28c-4-.41-8.03-.37-12.01.11v26.43L27.98,6.86c-3.49,1.95-6.82,4.31-9.9,7.08l24.2,24.21c4.82,4.81,11.91,6.02,17.85,3.61Z"/>
    </g>
  </g>
</svg>